<svg width="1440" height="297" viewBox="0 0 1440 297" fill="none" xmlns="http://www.w3.org/2000/svg">
<g filter="url(#filter0_d_78_13)">
<path d="M-29.9034 163.927C-33.2942 136.522 -13.7198 112.632 13.8173 110.569L583.633 67.8697C611.17 65.8062 636.242 86.3498 639.633 113.755L643.172 142.365C646.563 169.77 626.989 193.659 599.452 195.723L29.6363 238.422C2.09928 240.485 -22.9728 219.942 -26.3636 192.536L-29.9034 163.927Z" fill="#E01D29"/>
</g>
<g filter="url(#filter1_d_78_13)">
<path d="M1473.17 245.004C1467.67 272.064 1440.99 291.261 1413.58 287.883L12.6243 115.202C-14.7825 111.824 -32.5356 87.1494 -27.0285 60.0899L23.0563 -186.004C28.5634 -213.064 55.2454 -232.261 82.6522 -228.883L1483.61 -56.2022C1511.01 -52.824 1528.77 -28.1494 1523.26 -1.08991L1473.17 245.004Z" fill="#545454"/>
</g>
<defs>
<filter id="filter0_d_78_13" x="-34.2852" y="67.7268" width="681.839" height="178.838" filterUnits="userSpaceOnUse" color-interpolation-filters="sRGB">
<feFlood flood-opacity="0" result="BackgroundImageFix"/>
<feColorMatrix in="SourceAlpha" type="matrix" values="0 0 0 0 0 0 0 0 0 0 0 0 0 0 0 0 0 0 127 0" result="hardAlpha"/>
<feOffset dy="4"/>
<feGaussianBlur stdDeviation="2"/>
<feComposite in2="hardAlpha" operator="out"/>
<feColorMatrix type="matrix" values="0 0 0 0 0 0 0 0 0 0 0 0 0 0 0 0 0 0 0.25 0"/>
<feBlend mode="normal" in2="BackgroundImageFix" result="effect1_dropShadow_78_13"/>
<feBlend mode="normal" in="SourceGraphic" in2="effect1_dropShadow_78_13" result="shape"/>
</filter>
<filter id="filter1_d_78_13" x="-32.0303" y="-229.269" width="1560.29" height="525.538" filterUnits="userSpaceOnUse" color-interpolation-filters="sRGB">
<feFlood flood-opacity="0" result="BackgroundImageFix"/>
<feColorMatrix in="SourceAlpha" type="matrix" values="0 0 0 0 0 0 0 0 0 0 0 0 0 0 0 0 0 0 127 0" result="hardAlpha"/>
<feOffset dy="4"/>
<feGaussianBlur stdDeviation="2"/>
<feComposite in2="hardAlpha" operator="out"/>
<feColorMatrix type="matrix" values="0 0 0 0 0 0 0 0 0 0 0 0 0 0 0 0 0 0 0.25 0"/>
<feBlend mode="normal" in2="BackgroundImageFix" result="effect1_dropShadow_78_13"/>
<feBlend mode="normal" in="SourceGraphic" in2="effect1_dropShadow_78_13" result="shape"/>
</filter>
</defs>
</svg>
