<svg width="1440" height="363" viewBox="0 0 1440 363" fill="none" xmlns="http://www.w3.org/2000/svg">
<g filter="url(#filter0_d_29_5)">
<path d="M-35.1613 209.886C-38.2001 182.439 -18.3559 158.321 9.16204 156.017L579.047 108.294C606.565 105.99 631.336 126.372 634.375 153.818L639.189 197.302C642.228 224.749 622.384 248.867 594.866 251.171L24.9811 298.894C-2.53685 301.198 -27.308 280.816 -30.3468 253.37L-35.1613 209.886Z" fill="#FF003D"/>
</g>
<g filter="url(#filter1_d_29_5)">
<path d="M1467.54 311.809C1462.59 338.976 1436.41 357.945 1409.05 354.177L7.91172 161.179C-19.4442 157.411 -37.6098 132.333 -32.6621 105.165L19.4486 -180.972C24.3963 -208.139 50.5835 -227.108 77.9395 -223.34L1479.08 -30.3417C1506.43 -26.5736 1524.6 -1.49542 1519.65 25.672L1467.54 311.809Z" fill="#300240"/>
</g>
<defs>
<filter id="filter0_d_29_5" x="-39.4685" y="108.117" width="682.965" height="198.955" filterUnits="userSpaceOnUse" color-interpolation-filters="sRGB">
<feFlood flood-opacity="0" result="BackgroundImageFix"/>
<feColorMatrix in="SourceAlpha" type="matrix" values="0 0 0 0 0 0 0 0 0 0 0 0 0 0 0 0 0 0 127 0" result="hardAlpha"/>
<feOffset dy="4"/>
<feGaussianBlur stdDeviation="2"/>
<feComposite in2="hardAlpha" operator="out"/>
<feColorMatrix type="matrix" values="0 0 0 0 0 0 0 0 0 0 0 0 0 0 0 0 0 0 0.25 0"/>
<feBlend mode="normal" in2="BackgroundImageFix" result="effect1_dropShadow_29_5"/>
<feBlend mode="normal" in="SourceGraphic" in2="effect1_dropShadow_29_5" result="shape"/>
</filter>
<filter id="filter1_d_29_5" x="-37.4744" y="-223.817" width="1561.94" height="586.471" filterUnits="userSpaceOnUse" color-interpolation-filters="sRGB">
<feFlood flood-opacity="0" result="BackgroundImageFix"/>
<feColorMatrix in="SourceAlpha" type="matrix" values="0 0 0 0 0 0 0 0 0 0 0 0 0 0 0 0 0 0 127 0" result="hardAlpha"/>
<feOffset dy="4"/>
<feGaussianBlur stdDeviation="2"/>
<feComposite in2="hardAlpha" operator="out"/>
<feColorMatrix type="matrix" values="0 0 0 0 0 0 0 0 0 0 0 0 0 0 0 0 0 0 0.25 0"/>
<feBlend mode="normal" in2="BackgroundImageFix" result="effect1_dropShadow_29_5"/>
<feBlend mode="normal" in="SourceGraphic" in2="effect1_dropShadow_29_5" result="shape"/>
</filter>
</defs>
</svg>
