<svg width="1440" height="196" viewBox="0 0 1440 196" fill="none" xmlns="http://www.w3.org/2000/svg">
<g filter="url(#filter0_d_44_3)">
<path d="M787.368 512.836C782.099 539.943 755.853 557.646 728.746 552.377L-27.9186 405.296C-55.0255 400.027 -72.7286 373.781 -67.4595 346.674L-9.61335 49.0814C-4.34431 21.9745 21.9016 4.27149 49.0084 9.54052L805.674 156.621C832.78 161.89 850.483 188.136 845.214 215.243L787.368 512.836Z" fill="#300240"/>
</g>
<g filter="url(#filter1_d_44_3)">
<path d="M671.792 124.195C669.146 96.7079 689.283 72.2796 716.77 69.6329L1390.17 4.7923C1417.65 2.14559 1442.08 22.2827 1444.73 49.7698L1471.45 327.321C1474.1 354.809 1453.96 379.237 1426.47 381.884L753.08 446.724C725.592 449.371 701.164 429.234 698.517 401.747L671.792 124.195Z" fill="#FF003D"/>
</g>
<defs>
<filter id="filter0_d_44_3" x="-72.3875" y="8.61252" width="922.53" height="552.692" filterUnits="userSpaceOnUse" color-interpolation-filters="sRGB">
<feFlood flood-opacity="0" result="BackgroundImageFix"/>
<feColorMatrix in="SourceAlpha" type="matrix" values="0 0 0 0 0 0 0 0 0 0 0 0 0 0 0 0 0 0 127 0" result="hardAlpha"/>
<feOffset dy="4"/>
<feGaussianBlur stdDeviation="2"/>
<feComposite in2="hardAlpha" operator="out"/>
<feColorMatrix type="matrix" values="0 0 0 0 0 0 0 0 0 0 0 0 0 0 0 0 0 0 0.25 0"/>
<feBlend mode="normal" in2="BackgroundImageFix" result="effect1_dropShadow_44_3"/>
<feBlend mode="normal" in="SourceGraphic" in2="effect1_dropShadow_44_3" result="shape"/>
</filter>
<filter id="filter1_d_44_3" x="667.559" y="4.55859" width="808.128" height="450.399" filterUnits="userSpaceOnUse" color-interpolation-filters="sRGB">
<feFlood flood-opacity="0" result="BackgroundImageFix"/>
<feColorMatrix in="SourceAlpha" type="matrix" values="0 0 0 0 0 0 0 0 0 0 0 0 0 0 0 0 0 0 127 0" result="hardAlpha"/>
<feOffset dy="4"/>
<feGaussianBlur stdDeviation="2"/>
<feComposite in2="hardAlpha" operator="out"/>
<feColorMatrix type="matrix" values="0 0 0 0 0 0 0 0 0 0 0 0 0 0 0 0 0 0 0.25 0"/>
<feBlend mode="normal" in2="BackgroundImageFix" result="effect1_dropShadow_44_3"/>
<feBlend mode="normal" in="SourceGraphic" in2="effect1_dropShadow_44_3" result="shape"/>
</filter>
</defs>
</svg>
